<?xml version="1.0" encoding="UTF-8" standalone="no"?>
<!DOCTYPE svg PUBLIC "-//W3C//DTD SVG 1.1//EN" "http://www.w3.org/Graphics/SVG/1.1/DTD/svg11.dtd">
<svg width="100%" height="100%" viewBox="0 0 600 150" version="1.1" xmlns="http://www.w3.org/2000/svg" xmlns:xlink="http://www.w3.org/1999/xlink" xml:space="preserve" xmlns:serif="http://www.serif.com/" style="fill-rule:evenodd;clip-rule:evenodd;stroke-linejoin:round;stroke-miterlimit:2;">
    <g transform="matrix(2,0,0,2,0,0)">
        <g transform="matrix(1.13496,0,0,1.13496,5.39565,63.0987)">
            <g>
                <g>
                    <path d="M35.938,-8.094L18.156,-8.094C17.016,-8.094 16.078,-8.203 15.313,-8.484C14.656,-8.703 14.109,-9.078 13.734,-9.688C13.297,-10.281 12.969,-11.109 12.797,-12.094C12.578,-13.188 12.531,-14.547 12.531,-16.188L12.531,-43.156C12.531,-44.906 11.438,-45.063 11,-45.063L5.969,-45.063C5.469,-45.063 4.375,-44.906 4.375,-43.156L4.375,-17.125C4.375,-14.063 4.656,-11.438 5.141,-9.297C5.641,-7.109 6.406,-5.313 7.5,-3.938C8.594,-2.516 10.016,-1.484 11.766,-0.875C13.406,-0.281 15.484,0.063 17.891,0.063L35.938,0.063C36.422,0.063 37.469,-0.172 37.469,-1.859L37.469,-6.188C37.469,-7.875 36.422,-8.094 35.938,-8.094Z" style="fill-rule:nonzero;"/>
                </g>
            </g>
        </g>
        <g transform="matrix(1.13496,0,0,1.13496,55.9824,63.0987)">
            <g>
                <g>
                    <path d="M10.938,-45.063L5.906,-45.063C5.469,-45.063 4.375,-44.844 4.375,-43.156L4.375,-1.859C4.375,-0.172 5.469,0.063 5.906,0.063L10.938,0.063C11.375,0.063 12.469,-0.172 12.469,-1.859L12.469,-43.156C12.469,-44.844 11.375,-45.063 10.938,-45.063Z" style="fill-rule:nonzero;"/>
                </g>
            </g>
        </g>
        <g transform="matrix(1.13496,0,0,1.13496,78.2033,63.0987)">
            <g>
                <g>
                    <path d="M30.797,-26.906L14.391,-26.906C13.563,-26.906 12.531,-27.234 12.531,-29.922L12.531,-33.969C12.531,-34.953 12.688,-35.719 12.969,-36.266C13.188,-36.594 13.516,-36.969 14.438,-36.969L36.703,-36.969C37.141,-36.969 38.234,-37.141 38.234,-38.828L38.234,-43.203C38.234,-44.906 37.141,-45.063 36.703,-45.063L13.125,-45.063C10.125,-45.063 7.938,-44.078 6.516,-42.063C5.094,-40.094 4.375,-37.469 4.375,-34.297L4.375,-30.141C4.375,-26.359 5.141,-23.297 6.516,-21.391C8.203,-19.141 10.719,-18.813 13.016,-18.813L29.422,-18.813C30.25,-18.813 31.344,-18.484 31.344,-15.813L31.344,-11.109C31.344,-10.125 31.172,-9.359 30.844,-8.813C30.625,-8.484 30.297,-8.094 29.375,-8.094L6.016,-8.094C5.531,-8.094 4.438,-7.938 4.438,-6.234L4.438,-1.859C4.438,-0.172 5.531,0 6.016,0L30.688,0C33.688,0 35.938,-1.047 37.359,-3.063C38.719,-5.031 39.438,-7.609 39.438,-10.781L39.438,-15.594C39.438,-19.141 38.719,-21.938 37.297,-23.906C35.828,-25.875 33.641,-26.906 30.797,-26.906Z" style="fill-rule:nonzero;"/>
                </g>
            </g>
        </g>
        <g transform="matrix(1.13496,0,0,1.13496,131.025,63.0987)">
            <g>
                <g>
                    <path d="M42.172,-45.063L5.969,-45.063C5.469,-45.063 4.375,-44.906 4.375,-43.203L4.375,-38.938C4.375,-37.141 5.469,-36.969 5.969,-36.969L20.016,-36.969L20.016,-1.859C20.016,-0.172 21.109,0 21.547,0L26.578,0C27.078,0 28.109,-0.172 28.109,-1.859L28.109,-36.969L42.172,-36.969C42.656,-36.969 43.75,-37.141 43.75,-38.938L43.75,-43.203C43.75,-44.906 42.656,-45.063 42.172,-45.063Z" style="fill-rule:nonzero;"/>
                </g>
            </g>
        </g>
        <g transform="matrix(1.13496,0,0,1.13496,188.749,63.0987)">
            <g>
                <g>
                    <path d="M37.25,-9.797L18,-9.797C16.844,-9.797 15.922,-9.953 15.156,-10.172C14.438,-10.453 13.953,-10.828 13.516,-11.375C13.078,-11.984 12.75,-12.797 12.578,-13.844C12.531,-14.109 12.531,-14.5 12.469,-14.766C12.469,-14.766 12.531,-18.703 12.578,-18.703L37.031,-18.703C37.469,-18.703 38.563,-18.922 38.563,-20.625L38.563,-24.938C38.563,-26.641 37.469,-26.797 37.031,-26.797L8.813,-26.75C7.219,-26.641 5.859,-25.813 5.094,-24.453C4.813,-24.016 4.594,-23.578 4.484,-23.078L4.375,-16.188L4.375,-15.922C4.438,-13.344 4.703,-11.156 5.094,-9.359C5.578,-7.172 6.406,-5.359 7.438,-4C8.531,-2.578 9.953,-1.594 11.703,-0.984C13.406,-0.328 15.422,-0.063 17.828,-0.063L37.25,-0.063C37.734,-0.063 38.828,-0.219 38.828,-1.922L38.828,-7.938C38.828,-9.625 37.734,-9.797 37.25,-9.797ZM37.297,-45.172L5.859,-45.172C5.422,-45.172 4.375,-44.953 4.375,-43.203L4.375,-38.938C4.375,-37.25 5.422,-37.078 5.859,-37.078L37.297,-37.031C37.734,-37.031 38.828,-37.25 38.828,-38.938L38.828,-43.266C38.828,-44.953 37.734,-45.172 37.297,-45.172Z" style="fill-rule:nonzero;"/>
                </g>
            </g>
        </g>
        <g transform="matrix(1.13496,0,0,1.13496,240.888,63.0987)">
            <g>
                <g>
                    <path d="M41.672,-32L41.672,-31.672L41.672,-32ZM42.719,-2.359L33.141,-18.766C35.828,-19.094 37.906,-20.234 39.266,-22.094C40.797,-24.344 41.625,-27.563 41.672,-31.828C41.625,-36.094 40.797,-39.328 39.266,-41.563C37.625,-43.922 34.891,-45.063 31.172,-45.063L5.969,-45.063C5.469,-45.063 4.375,-44.906 4.375,-43.156L4.375,-38.828C4.375,-37.141 5.469,-36.969 5.969,-36.969L29.75,-36.969C31.172,-36.969 32.109,-36.594 32.656,-35.766C33.25,-34.953 33.531,-33.641 33.531,-31.828C33.531,-30.031 33.25,-28.719 32.656,-27.891C32.109,-27.078 31.172,-26.688 29.75,-26.688L5.969,-26.688C5.469,-26.688 4.375,-26.531 4.375,-24.828L4.375,-1.859C4.375,-0.172 5.469,0.063 5.969,0.063L10.938,0.063C11.438,0.063 12.469,-0.172 12.469,-1.859L12.469,-18.594L24.016,-18.594L33.906,-1.047C34.125,-0.719 34.297,-0.438 34.516,-0.281C34.781,-0.063 35.172,0.063 35.656,0.063L41.672,0.063C42.328,0.063 42.828,-0.391 42.938,-1.047C42.984,-1.594 42.938,-2.031 42.719,-2.359Z" style="fill-rule:nonzero;"/>
                </g>
            </g>
        </g>
    </g>
</svg>
